<?xml version="1.0" standalone="no"?>
<!DOCTYPE svg PUBLIC "-//W3C//DTD SVG 20010904//EN"
 "http://www.w3.org/TR/2001/REC-SVG-20010904/DTD/svg10.dtd">
<svg version="1.0" xmlns="http://www.w3.org/2000/svg"
 width="562.000000pt" height="791.000000pt" viewBox="0 0 562.000000 791.000000"
 preserveAspectRatio="xMidYMid meet">

<g transform="translate(0.000000,791.000000) scale(0.100000,-0.100000)"
fill="#ffffff" stroke="none">
<path d="M417 7790 c-21 -18 -37 -36 -37 -41 0 -16 23 -10 47 13 l24 22 24
-25 c13 -13 27 -36 30 -51 6 -23 3 -29 -19 -37 -58 -23 -119 -23 -161 -2 -50
26 -54 26 -65 -3 -6 -16 -25 -30 -57 -42 -140 -51 -158 -60 -158 -79 0 -14 14
-25 50 -38 59 -22 84 -17 133 27 55 49 69 51 104 16 l30 -30 26 19 c15 11 50
43 77 73 l50 53 6 -101 c4 -56 12 -125 19 -155 40 -165 77 -196 580 -484 397
-227 621 -365 713 -438 48 -37 83 -91 113 -176 20 -54 23 -59 18 -26 -10 69
-52 177 -81 207 -40 42 -155 116 -408 263 -641 371 -776 459 -832 540 -33 48
-43 102 -57 297 -14 202 -18 212 -92 224 -36 5 -45 3 -77 -26z"/>
<path d="M4260 7766 c0 -8 27 -50 61 -93 93 -121 148 -205 155 -238 7 -40 3
-43 -251 -217 -115 -79 -275 -189 -355 -244 -227 -157 -357 -244 -364 -244 -3
0 -6 15 -6 33 -1 131 -75 298 -185 415 -60 64 -208 182 -228 182 -4 0 -27 -56
-27 -66 0 -2 9 -4 20 -4 12 0 25 -10 31 -24 8 -17 28 -30 68 -43 43 -14 56
-23 56 -38 0 -18 -8 -20 -62 -23 -53 -3 -65 -7 -83 -29 -31 -40 -26 -53 21
-53 38 0 41 -2 34 -22 -17 -55 -16 -66 12 -114 46 -79 75 -153 67 -176 -5 -17
-12 -19 -43 -15 -75 12 -271 20 -271 11 0 -5 39 -17 88 -26 173 -32 192 -44
536 -333 175 -147 218 -169 355 -182 77 -7 113 -34 154 -115 38 -75 39 -191 2
-274 -14 -32 -23 -59 -21 -62 3 -2 30 21 61 52 l55 57 0 67 c-1 39 -9 90 -20
122 -10 30 -17 56 -15 58 7 7 175 -17 195 -28 30 -16 104 -121 147 -208 32
-63 39 -88 41 -152 3 -64 0 -86 -22 -140 l-26 -64 29 28 c48 46 63 90 71 211
9 130 24 172 76 211 35 27 44 29 123 29 73 -1 96 -5 149 -30 72 -32 128 -90
138 -141 13 -68 -35 -115 -271 -269 -76 -49 -133 -91 -127 -93 20 -6 161 37
225 69 70 36 153 98 211 157 l39 41 -5 70 c-6 79 -44 169 -81 193 -34 22 -55
26 -288 53 -119 13 -238 29 -264 35 -65 15 -366 119 -548 191 -156 61 -215 93
-285 158 -36 33 -42 44 -36 63 12 39 44 77 121 143 66 56 469 331 761 519 121
78 139 105 122 181 -20 89 -124 273 -203 358 -50 53 -137 87 -137 53z"/>
<path d="M4136 7741 c-12 -18 -288 -121 -671 -250 -194 -65 -279 -100 -210
-85 17 4 129 35 250 69 353 101 579 189 634 249 14 14 19 26 13 26 -6 0 -13
-4 -16 -9z"/>
<path d="M642 7724 c6 -31 53 -54 173 -83 66 -16 199 -48 295 -71 240 -57 475
-124 579 -164 239 -93 527 -263 821 -485 153 -116 232 -159 310 -168 51 -6 54
-5 41 11 -8 9 -66 56 -129 103 -63 48 -165 136 -226 196 -241 239 -461 369
-761 452 -220 60 -574 133 -940 195 -66 11 -130 22 -143 25 -18 5 -23 2 -20
-11z"/>
<path d="M649 7463 c17 -35 122 -162 192 -233 134 -135 321 -287 404 -327 40
-19 -30 49 -246 236 -90 79 -208 188 -262 244 -54 56 -94 92 -88 80z"/>
<path d="M417 7440 c3 -10 21 -36 40 -57 l35 -38 -22 35 c-11 19 -26 45 -32
58 -14 27 -28 29 -21 2z"/>
<path d="M1220 7373 c1 -43 33 -149 64 -212 36 -70 136 -211 177 -246 27 -24
25 -21 -61 115 -82 128 -109 182 -145 283 -28 78 -35 91 -35 60z"/>
<path d="M2918 6683 c53 -51 72 -95 72 -168 -1 -79 -66 -225 -156 -350 -32
-45 -29 -43 35 23 159 165 205 359 113 481 -22 30 -74 61 -103 61 -6 0 11 -21
39 -47z"/>
<path d="M2142 6408 c-24 -127 -35 -371 -16 -321 6 15 14 78 18 138 4 61 12
150 17 198 6 49 9 91 6 93 -3 3 -14 -46 -25 -108z"/>
<path d="M2195 6373 c22 -212 105 -371 287 -555 52 -51 109 -104 128 -117 19
-14 -22 34 -91 105 -69 71 -140 151 -158 177 -72 106 -139 276 -156 397 -7 45
-6 45 32 -30 89 -174 251 -333 431 -424 51 -26 201 -86 212 -86 3 1 -44 25
-105 54 -233 113 -404 268 -526 478 -22 37 -45 68 -51 68 -7 0 -8 -22 -3 -67z"/>
<path d="M3478 6260 c-3 -8 -13 -42 -23 -75 -23 -80 -54 -139 -115 -222 l-51
-68 69 70 c76 79 107 134 123 219 10 57 8 109 -3 76z"/>
<path d="M3690 6191 c-5 -11 -10 -44 -10 -73 -1 -75 -15 -129 -41 -148 -12 -9
-101 -59 -198 -110 -278 -148 -421 -230 -461 -267 -43 -38 -70 -96 -96 -201
-9 -41 -23 -76 -31 -79 -19 -8 -95 23 -151 61 -61 42 -72 48 -72 42 0 -15 99
-82 156 -105 l67 -27 1 -150 c1 -139 3 -152 25 -189 76 -127 212 -214 491
-315 268 -98 389 -156 568 -275 l127 -85 -60 56 c-179 168 -356 266 -679 376
-215 73 -298 125 -340 211 -61 126 -61 382 -1 515 51 111 99 148 344 268 204
99 280 143 339 198 64 59 75 87 75 186 0 109 -25 162 -53 111z"/>
<path d="M3818 6108 c6 -102 -6 -163 -43 -218 -39 -58 -16 -54 35 7 l32 38 -6
-63 c-11 -114 -86 -238 -190 -314 -44 -31 -41 -36 7 -11 47 24 156 132 180
178 53 105 61 229 22 354 -14 44 -29 82 -33 85 -4 2 -5 -23 -4 -56z"/>
<path d="M5178 6066 c-48 -28 -91 -56 -95 -60 -4 -5 18 -6 51 -2 58 6 60 6
106 -33 26 -22 64 -48 84 -57 34 -17 39 -17 111 1 93 23 106 16 81 -45 -20
-50 -20 -51 -1 -43 37 14 60 114 33 141 -16 16 -59 15 -125 -4 -64 -19 -107
-13 -140 18 -28 26 -29 45 -3 78 25 31 26 60 3 59 -10 0 -57 -24 -105 -53z"/>
<path d="M1984 6073 c-3 -16 -7 -34 -9 -40 -7 -21 14 -289 31 -406 19 -139 44
-203 101 -267 44 -49 133 -105 155 -98 5 2 -23 40 -63 83 -106 117 -114 141
-144 401 -14 120 -30 246 -35 279 -6 33 -10 63 -10 68 0 19 -20 4 -26 -20z"/>
<path d="M2044 6058 c24 -152 193 -404 401 -599 172 -161 178 -151 11 21 -233
241 -302 340 -380 548 -15 39 -30 72 -33 72 -3 0 -3 -19 1 -42z"/>
<path d="M4321 5965 c-1 -5 -6 -71 -11 -147 -5 -75 -17 -166 -25 -203 -9 -37
-14 -69 -12 -72 5 -4 41 93 56 152 13 48 13 232 1 260 -5 11 -9 16 -9 10z"/>
<path d="M2130 5707 c0 -27 60 -188 100 -268 110 -217 275 -405 546 -617 52
-41 2 -11 -156 93 -85 57 -177 114 -204 129 -51 26 -75 27 -40 1 209 -154 352
-240 436 -261 27 -7 61 -22 76 -32 39 -28 282 -155 287 -150 2 2 -53 39 -122
83 -458 288 -737 587 -880 942 -38 95 -43 105 -43 80z"/>
<path d="M3426 5479 c-93 -35 -196 -45 -306 -31 -41 5 -76 8 -78 7 -1 -1 14
-11 35 -21 48 -23 169 -30 242 -14 55 12 177 65 187 82 3 4 4 8 2 7 -2 0 -39
-14 -82 -30z"/>
<path d="M4230 5459 c-7 -11 -10 -23 -7 -25 2 -2 9 7 15 21 14 30 7 33 -8 4z"/>
<path d="M2640 5296 c0 -2 8 -10 18 -17 15 -13 16 -12 3 4 -13 16 -21 21 -21
13z"/>
<path d="M2257 4995 c22 -311 215 -586 508 -726 167 -79 331 -123 585 -154
970 -121 1718 -373 2064 -696 92 -86 102 -74 13 14 -309 310 -1225 655 -1981
747 -88 11 -201 25 -251 31 -263 32 -449 115 -626 277 -113 104 -222 283 -275
454 -39 125 -43 130 -37 53z"/>
<path d="M1941 4943 c-141 -524 -163 -1148 -60 -1708 96 -520 310 -1024 621
-1457 138 -194 226 -296 438 -509 208 -209 393 -366 636 -539 123 -88 377
-250 391 -250 4 0 -66 49 -157 108 -957 628 -1571 1486 -1815 2536 -75 323
-108 635 -108 1021 -1 278 11 441 48 680 24 150 26 191 6 118z"/>
<path d="M2180 4803 c-88 -230 -118 -363 -130 -582 -18 -299 12 -528 105 -806
96 -291 266 -596 478 -860 142 -176 491 -524 664 -662 257 -205 633 -472 633
-450 0 2 -26 21 -57 43 -745 507 -1205 974 -1492 1515 -308 583 -379 1173
-207 1739 19 63 33 116 31 118 -1 2 -13 -23 -25 -55z"/>
<path d="M1389 4569 c-407 -516 -707 -1174 -808 -1777 -34 -196 -44 -327 -43
-562 0 -235 9 -354 43 -555 78 -463 279 -945 586 -1405 34 -52 63 -92 63 -88
0 4 -28 51 -63 105 -299 465 -485 959 -554 1478 -24 187 -24 650 1 830 67 490
198 901 437 1379 86 170 236 430 303 526 18 25 49 69 70 98 57 79 37 63 -35
-29z"/>
<path d="M2185 4180 c7 -311 84 -601 247 -924 96 -191 239 -405 358 -536 22
-25 6 0 -36 55 -320 415 -513 887 -553 1355 -18 208 -19 211 -16 50z"/>
<path d="M3505 4036 c17 -7 152 -52 300 -100 504 -164 719 -237 815 -278 194
-83 444 -218 570 -309 l55 -40 -50 45 c-73 66 -273 187 -447 270 -251 121
-382 167 -943 332 -82 25 -187 56 -231 69 -89 27 -116 31 -69 11z"/>
<path d="M1771 3844 c0 -11 3 -14 6 -6 3 7 2 16 -1 19 -3 4 -6 -2 -5 -13z"/>
<path d="M1739 3668 c-18 -142 -18 -521 -1 -643 51 -358 141 -633 308 -940
137 -251 260 -421 455 -631 197 -212 418 -405 650 -569 102 -72 155 -104 99
-58 -682 550 -1078 1041 -1318 1633 -149 367 -211 751 -184 1141 6 95 10 174
8 176 -2 2 -10 -47 -17 -109z"/>
<path d="M5250 3306 c0 -2 8 -10 18 -17 15 -13 16 -12 3 4 -13 16 -21 21 -21
13z"/>
<path d="M5410 3146 c0 -2 8 -10 18 -17 15 -13 16 -12 3 4 -13 16 -21 21 -21
13z"/>
<path d="M3075 2420 c33 -33 62 -60 64 -60 3 0 -21 27 -54 60 -33 33 -62 60
-64 60 -3 0 21 -27 54 -60z"/>
<path d="M3195 2310 c10 -11 20 -20 23 -20 3 0 -3 9 -13 20 -10 11 -20 20 -23
20 -3 0 3 -9 13 -20z"/>
<path d="M3234 2282 c28 -46 506 -394 506 -369 0 3 -55 42 -122 88 -138 93
-256 180 -338 248 -30 25 -51 40 -46 33z"/>
<path d="M3780 1887 c0 -7 72 -48 76 -44 2 2 -14 14 -36 26 -22 12 -40 20 -40
18z"/>
<path d="M3894 1815 c11 -8 25 -15 30 -15 6 0 2 7 -8 15 -11 8 -25 15 -30 15
-6 0 -2 -7 8 -15z"/>
<path d="M3970 1416 c0 -3 9 -10 20 -16 11 -6 20 -8 20 -6 0 3 -9 10 -20 16
-11 6 -20 8 -20 6z"/>
<path d="M4057 1359 c7 -7 15 -10 18 -7 3 3 -2 9 -12 12 -14 6 -15 5 -6 -5z"/>
<path d="M4160 1296 c0 -2 7 -7 16 -10 8 -3 12 -2 9 4 -6 10 -25 14 -25 6z"/>
<path d="M4240 1250 c8 -5 20 -10 25 -10 6 0 3 5 -5 10 -8 5 -19 10 -25 10 -5
0 -3 -5 5 -10z"/>
<path d="M4000 456 c0 -2 7 -7 16 -10 8 -3 12 -2 9 4 -6 10 -25 14 -25 6z"/>
<path d="M1269 122 c5 -10 18 -25 27 -33 11 -9 9 -2 -6 19 -26 35 -36 42 -21
14z"/>
</g>
</svg>
